<svg version="1.1" id="Layer_1" xmlns="http://www.w3.org/2000/svg" xmlns:xlink="http://www.w3.org/1999/xlink" x="0px" y="0px"
	 width="100%" viewBox="0 0 540 540" enable-background="new 0 0 540 540" xml:space="preserve">
<path fill="#000000" opacity="1.000000" stroke="none" 
	d="
M359.000000,541.000000 
	C239.360901,541.000000 120.221802,541.000000 1.041349,541.000000 
	C1.041349,361.069214 1.041349,181.138412 1.041349,1.103807 
	C180.889114,1.103807 360.778290,1.103807 540.833740,1.103807 
	C540.833740,180.999878 540.833740,360.999939 540.833740,541.000000 
	C480.471710,541.000000 419.985870,541.000000 359.000000,541.000000 
M318.179321,326.396515 
	C319.070404,324.597443 319.961487,322.798370 321.160858,320.364197 
	C325.449402,317.347961 327.945953,313.171753 329.725098,307.816864 
	C330.590912,306.949280 331.726227,306.225250 332.277679,305.190186 
	C335.286621,299.542267 338.151947,293.817810 341.624115,287.819336 
	C341.695770,287.215271 341.767426,286.611176 341.999176,285.534119 
	C341.999176,285.534119 342.128357,285.051727 342.724792,284.707520 
	C343.846832,282.489410 344.968872,280.271332 346.819855,277.966614 
	C347.565491,277.200470 348.541199,276.555023 349.017212,275.647461 
	C351.180420,271.523407 353.392914,267.407562 355.236664,263.137238 
	C359.145050,254.084839 363.175720,245.059982 366.492432,235.786407 
	C368.644958,229.767761 369.625031,223.329788 371.736694,216.714523 
	C371.505585,213.847366 371.274445,210.980209 371.905090,207.981735 
	C372.190643,207.839859 372.725464,207.699295 372.726227,207.555939 
	C372.778564,197.481720 374.354401,187.103592 372.472015,177.396774 
	C368.677521,157.830124 359.433838,140.684326 345.135284,126.296074 
	C340.598145,121.730453 336.028656,117.734383 330.403381,114.621262 
	C323.354584,110.720345 316.993988,105.472038 309.747559,102.053291 
	C293.669067,94.467743 276.323456,93.665771 258.969727,95.125839 
	C252.157684,95.698982 245.458527,98.064140 238.815018,99.983696 
	C235.882233,100.831078 233.236298,102.644936 230.424591,103.943069 
	C224.412750,106.718643 217.754303,108.574631 212.474594,112.360619 
	C199.111694,121.942932 188.300049,133.871490 180.459656,148.686554 
	C176.146759,156.836151 172.237595,164.804764 170.993927,174.814072 
	C170.307297,179.504456 169.620667,184.194824 168.219696,189.365967 
	C168.459244,193.279510 168.698792,197.193039 168.982544,201.951920 
	C169.264389,204.328629 169.546234,206.705322 169.984360,209.551666 
	C169.984360,209.551666 170.152298,210.017258 170.020706,210.787689 
	C170.299484,212.213257 170.578247,213.638824 170.967102,215.856384 
	C172.841736,221.863159 172.328552,228.550903 176.018494,234.771561 
	C180.132965,245.117081 183.920441,255.609619 188.481018,265.754578 
	C191.347626,272.131348 195.373764,277.986847 198.990128,284.795258 
	C203.302551,292.230927 207.614990,299.666565 212.005203,307.876862 
	C214.627029,312.541443 217.248856,317.206055 220.098083,322.556671 
	C236.424698,346.870850 252.220612,371.565491 271.651520,395.806732 
	C287.553558,372.461304 302.708740,350.212280 317.946350,327.493286 
	C317.946350,327.493286 317.859100,327.023804 318.179321,326.396515 
z"/>
<path fill="#1775BB" opacity="1.000000" stroke="none" 
	d="
M317.863922,327.963257 
	C302.708740,350.212280 287.553558,372.461304 271.651520,395.806732 
	C252.220612,371.565491 236.424698,346.870850 220.330902,322.114075 
	C221.914490,321.108490 223.219833,320.355408 224.624924,320.019592 
	C228.232788,319.157227 229.381470,317.488068 227.126801,314.128113 
	C224.672073,310.470032 222.363159,306.714050 219.902771,302.662476 
	C213.870209,291.549713 207.925552,280.775208 201.836990,269.687836 
	C200.782486,267.250885 199.871918,265.126862 199.232330,262.828918 
	C201.006332,263.101318 202.710709,263.232666 203.980164,264.044250 
	C213.081696,269.863220 222.144821,275.745575 231.126251,281.748352 
	C254.891571,297.632019 278.610962,313.584412 302.345093,329.514740 
	C309.415710,334.260529 309.402039,334.260895 315.241974,327.959137 
	C315.674011,327.492950 316.346466,327.249664 316.960938,326.947021 
	C317.014709,326.991272 317.124237,327.077362 317.226257,327.241302 
	C317.483887,327.613281 317.662415,327.799286 317.863922,327.963257 
z"/>
<path fill="#017DC1" opacity="1.000000" stroke="none" 
	d="
M316.907166,326.902740 
	C316.346466,327.249664 315.674011,327.492950 315.241974,327.959137 
	C309.402039,334.260895 309.415710,334.260529 302.345093,329.514740 
	C278.610962,313.584412 254.891571,297.632019 231.126251,281.748352 
	C222.144821,275.745575 213.081696,269.863220 203.980164,264.044250 
	C202.710709,263.232666 201.006332,263.101318 199.003326,262.570984 
	C194.668900,253.991089 190.834442,245.495239 186.921143,236.632172 
	C184.887711,228.184128 182.933105,220.103317 181.182190,211.757660 
	C183.167709,211.504562 185.402725,210.816772 186.663193,211.633316 
	C204.466766,223.166885 222.143295,234.896713 239.839996,246.595047 
	C268.482727,265.529236 297.134979,284.449249 325.706573,303.490204 
	C327.198944,304.484741 327.977020,306.551117 329.087616,308.118500 
	C327.945953,313.171753 325.449402,317.347961 320.773438,320.772888 
	C319.226410,323.088654 318.066772,324.995697 316.907166,326.902740 
z"/>
<path fill="#01A1E3" opacity="1.000000" stroke="none" 
	d="
M171.116486,173.982971 
	C172.237595,164.804764 176.146759,156.836151 180.459656,148.686554 
	C188.300049,133.871490 199.111694,121.942932 212.474594,112.360619 
	C217.754303,108.574631 224.412750,106.718643 230.424591,103.943069 
	C233.236298,102.644936 235.882233,100.831078 238.815018,99.983696 
	C245.458527,98.064140 252.157684,95.698982 258.969727,95.125839 
	C276.323456,93.665771 293.669067,94.467743 309.747559,102.053291 
	C316.993988,105.472038 323.354584,110.720345 330.403381,114.621262 
	C336.028656,117.734383 340.598145,121.730453 345.135284,126.296074 
	C359.433838,140.684326 368.677521,157.830124 372.472015,177.396774 
	C374.354401,187.103592 372.778564,197.481720 372.726227,207.555939 
	C372.725464,207.699295 372.190643,207.839859 371.464722,207.571625 
	C371.016571,203.995941 371.087402,200.827789 370.983582,197.665375 
	C370.803711,192.188766 370.717010,186.694260 370.137024,181.255692 
	C369.984253,179.822983 368.166504,178.567810 367.113342,177.231110 
	C366.863831,186.461288 369.517609,194.704010 366.559723,204.140076 
	C365.943939,196.803558 365.634766,190.547089 364.786377,184.364609 
	C364.476501,182.106674 363.480957,179.143951 361.786804,177.998032 
	C344.304260,166.172943 326.598206,154.678894 308.986786,143.043594 
	C290.816956,131.039368 272.788971,118.814598 254.429413,107.109039 
	C251.358261,105.150955 246.249008,103.665962 243.236725,104.864868 
	C235.155350,108.081306 227.700333,112.871483 219.666199,117.121826 
	C210.141785,123.749100 201.738342,131.065582 195.747955,141.209198 
	C187.879089,151.037476 183.837173,162.251297 180.593918,174.022903 
	C177.185165,174.033203 174.150833,174.008087 171.116486,173.982971 
z"/>
<path fill="#019BDD" opacity="1.000000" stroke="none" 
	d="
M219.996552,117.036636 
	C227.700333,112.871483 235.155350,108.081306 243.236725,104.864868 
	C246.249008,103.665962 251.358261,105.150955 254.429413,107.109039 
	C272.788971,118.814598 290.816956,131.039368 308.986786,143.043594 
	C326.598206,154.678894 344.304260,166.172943 361.786804,177.998032 
	C363.480957,179.143951 364.476501,182.106674 364.786377,184.364609 
	C365.634766,190.547089 365.943939,196.803558 366.559723,204.140076 
	C369.517609,194.704010 366.863831,186.461288 367.113342,177.231110 
	C368.166504,178.567810 369.984253,179.822983 370.137024,181.255692 
	C370.717010,186.694260 370.803711,192.188766 370.983582,197.665375 
	C371.087402,200.827789 371.016571,203.995941 371.033813,207.637283 
	C371.274445,210.980209 371.505585,213.847366 371.192627,216.715561 
	C368.216858,215.777359 365.546600,215.211517 363.393646,213.836044 
	C352.473572,206.859329 341.813141,199.470901 330.812592,192.627197 
	C322.910126,187.710892 316.261078,182.492920 313.987305,172.517685 
	C312.044373,163.993790 304.998291,159.518539 296.506744,156.910858 
	C292.111145,155.117218 288.031830,153.490433 283.975189,151.476654 
	C281.284943,149.875641 278.672821,148.044693 275.837219,147.581375 
	C270.604584,146.726440 265.117004,146.198044 261.056458,150.893433 
	C257.595306,151.300812 254.302612,152.070923 251.099854,152.520020 
	C253.350723,149.598923 255.511658,146.998810 257.982147,144.026245 
	C256.296021,142.768936 254.917160,141.645096 253.445877,140.659180 
	C243.694580,134.124786 233.896530,127.659630 224.185822,121.065735 
	C222.605896,119.992928 221.383957,118.392937 219.996552,117.036636 
z"/>
<path fill="#0182C6" opacity="1.000000" stroke="none" 
	d="
M329.406372,307.967682 
	C327.977020,306.551117 327.198944,304.484741 325.706573,303.490204 
	C297.134979,284.449249 268.482727,265.529236 239.839996,246.595047 
	C222.143295,234.896713 204.466766,223.166885 186.663193,211.633316 
	C185.402725,210.816772 183.167709,211.504562 180.997375,211.471664 
	C180.091171,209.971634 179.573456,208.492767 179.048264,206.544464 
	C179.358231,198.048782 179.675674,190.022552 180.361542,182.026459 
	C182.245026,182.677353 183.909119,183.071396 185.251831,183.954269 
	C197.448425,191.973831 209.507675,200.205780 221.804581,208.066711 
	C224.771759,209.963531 228.470993,210.715179 231.908112,212.210358 
	C231.982635,212.427231 232.049133,212.881042 232.104462,213.120178 
	C232.760956,213.624863 233.362122,213.890411 234.266022,214.178284 
	C234.729172,214.770081 234.889587,215.339539 235.013275,215.945908 
	C234.976562,215.982819 235.090149,215.948303 235.378906,216.110870 
	C236.134796,217.477859 236.601913,218.682297 237.138000,220.221970 
	C239.934479,222.974121 242.662018,225.391022 245.742371,227.776459 
	C247.767899,228.554443 249.440628,229.363892 251.278625,230.459412 
	C253.399918,231.756714 255.355927,232.767960 257.365601,233.771301 
	C257.419281,233.763397 257.514221,233.590927 257.647339,233.407806 
	C257.780457,233.224701 258.109283,232.913483 258.335175,233.034576 
	C258.759857,233.430130 258.958618,233.704590 259.343689,234.163635 
	C260.002777,234.576157 260.475616,234.804108 261.185059,235.172638 
	C262.296417,235.166534 263.171173,235.019821 264.068909,234.874893 
	C264.091858,234.876663 264.109894,234.919815 264.253174,235.248840 
	C266.616028,236.489288 269.067993,237.054916 271.018921,238.366043 
	C288.930359,250.403442 306.699219,262.653442 324.637665,274.649963 
	C330.268372,278.415558 336.287201,281.600830 342.128357,285.051727 
	C342.128357,285.051727 341.999176,285.534119 341.714294,285.852417 
	C341.308533,286.820374 341.187592,287.470032 341.066650,288.119690 
	C338.151947,293.817810 335.286621,299.542267 332.277679,305.190186 
	C331.726227,306.225250 330.590912,306.949280 329.406372,307.967682 
z"/>
<path fill="#0391D3" opacity="1.000000" stroke="none" 
	d="
M296.822998,157.077698 
	C304.998291,159.518539 312.044373,163.993790 313.987305,172.517685 
	C316.261078,182.492920 322.910126,187.710892 330.812592,192.627197 
	C341.813141,199.470901 352.473572,206.859329 363.393646,213.836044 
	C365.546600,215.211517 368.216858,215.777359 370.889465,216.898148 
	C369.625031,223.329788 368.644958,229.767761 366.492432,235.786407 
	C363.175720,245.059982 359.145050,254.084839 355.236664,263.137238 
	C353.392914,267.407562 351.180420,271.523407 349.017212,275.647461 
	C348.541199,276.555023 347.565491,277.200470 346.433899,277.750488 
	C347.826233,273.430878 349.334778,269.180878 351.460541,265.266052 
	C353.490631,261.527466 352.633820,259.091888 349.300537,256.916840 
	C338.185791,249.664169 327.039429,242.455978 316.050873,235.015610 
	C310.988739,231.588028 306.264648,227.661148 301.492981,223.648254 
	C304.063538,219.966400 306.989807,216.839249 308.909912,213.183624 
	C315.607056,200.433319 314.577667,187.141830 310.865387,173.799042 
	C310.702209,173.212540 310.118805,172.744385 309.736542,172.217209 
	C306.354492,167.553406 303.699707,162.244003 298.080780,159.590439 
	C297.414551,159.275803 297.230530,157.940094 296.822998,157.077698 
z"/>
<path fill="#0189CD" opacity="1.000000" stroke="none" 
	d="
M301.387299,223.960663 
	C306.264648,227.661148 310.988739,231.588028 316.050873,235.015610 
	C327.039429,242.455978 338.185791,249.664169 349.300537,256.916840 
	C352.633820,259.091888 353.490631,261.527466 351.460541,265.266052 
	C349.334778,269.180878 347.826233,273.430878 346.069397,277.793793 
	C344.968872,280.271332 343.846832,282.489410 342.426575,284.879639 
	C336.287201,281.600830 330.268372,278.415558 324.637665,274.649963 
	C306.699219,262.653442 288.930359,250.403442 271.018921,238.366043 
	C269.067993,237.054916 266.616028,236.489288 264.708588,235.276169 
	C271.060883,234.599136 277.451141,235.330063 283.049408,233.558380 
	C289.525879,231.508789 295.305267,227.256577 301.387299,223.960663 
z"/>
<path fill="#0189CD" opacity="1.000000" stroke="none" 
	d="
M187.000000,236.999390 
	C190.834442,245.495239 194.668900,253.991089 198.732361,262.744873 
	C199.871918,265.126862 200.782486,267.250885 201.494019,269.831787 
	C194.546173,272.046692 194.583084,272.031738 197.339035,278.834229 
	C198.019547,280.513916 198.374863,282.325348 198.879684,284.076202 
	C195.373764,277.986847 191.347626,272.131348 188.481018,265.754578 
	C183.920441,255.609619 180.132965,245.117081 176.377899,234.544327 
	C180.862976,239.918503 182.426758,240.327209 187.000000,236.999390 
z"/>
<path fill="#0182C6" opacity="1.000000" stroke="none" 
	d="
M198.934906,284.435730 
	C198.374863,282.325348 198.019547,280.513916 197.339035,278.834229 
	C194.583084,272.031738 194.546173,272.046692 201.637939,270.144653 
	C207.925552,280.775208 213.870209,291.549713 219.670883,302.944702 
	C216.993744,304.744232 214.460587,305.923248 211.927429,307.102234 
	C207.614990,299.666565 203.302551,292.230927 198.934906,284.435730 
z"/>
<path fill="#019BDD" opacity="1.000000" stroke="none" 
	d="
M179.993118,181.996338 
	C179.675674,190.022552 179.358231,198.048782 178.614532,206.541458 
	C175.401550,207.699295 172.614822,208.390656 169.828079,209.082031 
	C169.546234,206.705322 169.264389,204.328629 168.975830,201.060959 
	C168.957413,196.408401 168.945709,192.646805 168.934021,188.885208 
	C169.620667,184.194824 170.307297,179.504456 171.055206,174.398529 
	C174.150833,174.008087 177.185165,174.033203 180.520782,174.414429 
	C180.545746,177.179123 180.269440,179.587738 179.993118,181.996338 
z"/>
<path fill="#0391D3" opacity="1.000000" stroke="none" 
	d="
M169.906219,209.316849 
	C172.614822,208.390656 175.401550,207.699295 178.622009,207.010925 
	C179.573456,208.492767 180.091171,209.971634 180.793701,211.736481 
	C182.933105,220.103317 184.887711,228.184128 186.921143,236.632172 
	C182.426758,240.327209 180.862976,239.918503 176.440033,234.160797 
	C172.328552,228.550903 172.841736,221.863159 171.122589,215.188568 
	C170.902802,213.019592 170.527542,211.518433 170.152298,210.017258 
	C170.152298,210.017258 169.984360,209.551666 169.906219,209.316849 
z"/>
<path fill="#017DC1" opacity="1.000000" stroke="none" 
	d="
M211.966309,307.489563 
	C214.460587,305.923248 216.993744,304.744232 219.758789,303.283020 
	C222.363159,306.714050 224.672073,310.470032 227.126801,314.128113 
	C229.381470,317.488068 228.232788,319.157227 224.624924,320.019592 
	C223.219833,320.355408 221.914490,321.108490 220.217194,321.771057 
	C217.248856,317.206055 214.627029,312.541443 211.966309,307.489563 
z"/>
<path fill="#1775BB" opacity="1.000000" stroke="none" 
	d="
M316.960938,326.947021 
	C318.066772,324.995697 319.226410,323.088654 320.619263,321.090454 
	C319.961487,322.798370 319.070404,324.597443 317.835205,326.719421 
	C317.491089,327.042358 317.124237,327.077362 317.124237,327.077362 
	C317.124237,327.077362 317.014709,326.991272 316.960938,326.947021 
z"/>
<path fill="#01A1E3" opacity="1.000000" stroke="none" 
	d="
M168.576859,189.125580 
	C168.945709,192.646805 168.957413,196.408401 168.953705,200.638290 
	C168.698792,197.193039 168.459244,193.279510 168.576859,189.125580 
z"/>
<path fill="#019BDD" opacity="1.000000" stroke="none" 
	d="
M170.086502,210.402466 
	C170.527542,211.518433 170.902802,213.019592 171.067535,214.792572 
	C170.578247,213.638824 170.299484,212.213257 170.086502,210.402466 
z"/>
<path fill="#0189CD" opacity="1.000000" stroke="none" 
	d="
M341.345398,287.969513 
	C341.187592,287.470032 341.308533,286.820374 341.634247,286.088928 
	C341.767426,286.611176 341.695770,287.215271 341.345398,287.969513 
z"/>
<path fill="#017DC1" opacity="1.000000" stroke="none" 
	d="
M317.226257,327.241302 
	C317.124237,327.077362 317.491089,327.042358 317.675110,327.033081 
	C317.859100,327.023804 317.946350,327.493286 317.905151,327.728271 
	C317.662415,327.799286 317.483887,327.613281 317.226257,327.241302 
z"/>
<path fill="#0189CD" opacity="1.000000" stroke="none" 
	d="
M180.361557,182.026459 
	C180.269440,179.587738 180.545746,177.179123 180.895187,174.378998 
	C183.837173,162.251297 187.879089,151.037476 196.122040,141.238800 
	C198.879654,141.935516 201.181137,142.505142 203.071289,143.716537 
	C211.124664,148.878036 219.030777,154.268677 227.045563,159.491425 
	C230.085052,161.472092 233.122421,162.728653 236.429626,159.534836 
	C238.152618,157.870956 239.805206,158.407532 239.899078,161.444305 
	C234.728073,167.829178 230.875443,173.928421 229.369598,182.379608 
	C227.660141,191.973450 226.814590,200.473038 232.214188,208.912064 
	C232.643631,209.583252 231.986023,210.949982 231.833588,211.993469 
	C228.470993,210.715179 224.771759,209.963531 221.804581,208.066711 
	C209.507675,200.205780 197.448425,191.973831 185.251831,183.954269 
	C183.909119,183.071396 182.245026,182.677353 180.361557,182.026459 
z"/>
<path fill="#0391D3" opacity="1.000000" stroke="none" 
	d="
M240.041748,161.139252 
	C239.805206,158.407532 238.152618,157.870956 236.429626,159.534836 
	C233.122421,162.728653 230.085052,161.472092 227.045563,159.491425 
	C219.030777,154.268677 211.124664,148.878036 203.071289,143.716537 
	C201.181137,142.505142 198.879654,141.935516 196.393341,141.041016 
	C201.738342,131.065582 210.141785,123.749100 219.666199,117.121819 
	C221.383957,118.392937 222.605896,119.992928 224.185822,121.065735 
	C233.896530,127.659630 243.694580,134.124786 253.445877,140.659180 
	C254.917160,141.645096 256.296021,142.768936 257.982147,144.026245 
	C255.511658,146.998810 253.350723,149.598923 250.779099,152.677094 
	C246.926193,155.816513 243.483963,158.477875 240.041748,161.139252 
z"/>
<path fill="#000000" opacity="1.000000" stroke="none" 
	d="
M301.492981,223.648254 
	C295.305267,227.256577 289.525879,231.508789 283.049408,233.558380 
	C277.451141,235.330063 271.060883,234.599136 264.565308,234.947144 
	C264.109894,234.919815 264.091858,234.876663 263.965363,234.608078 
	C263.227142,233.970428 262.615387,233.601364 261.707153,233.199249 
	C260.921417,233.429794 260.432159,233.693390 259.746460,233.961609 
	C259.550079,233.966248 259.157410,233.979050 259.157410,233.979050 
	C258.958618,233.704590 258.759857,233.430130 258.298065,232.678650 
	C270.807312,212.185608 283.579559,192.169556 296.818451,171.422195 
	C289.119537,172.396118 282.660309,173.213226 275.194824,174.157608 
	C278.423279,165.939117 281.187866,158.901382 283.952484,151.863647 
	C288.031830,153.490433 292.111145,155.117218 296.506744,156.910858 
	C297.230530,157.940094 297.414551,159.275803 298.080780,159.590439 
	C303.699707,162.244003 306.354492,167.553406 309.736542,172.217209 
	C310.118805,172.744385 310.702209,173.212540 310.865387,173.799042 
	C314.577667,187.141830 315.607056,200.433319 308.909912,213.183624 
	C306.989807,216.839249 304.063538,219.966400 301.492981,223.648254 
z"/>
<path fill="#7DD958" opacity="1.000000" stroke="none" 
	d="
M283.975189,151.476669 
	C281.187866,158.901382 278.423279,165.939117 275.194824,174.157608 
	C282.660309,173.213226 289.119537,172.396118 296.818451,171.422195 
	C283.579559,192.169556 270.807312,212.185608 258.072174,232.557556 
	C258.109283,232.913483 257.780457,233.224701 257.582703,233.373016 
	C257.384949,233.521317 257.311951,233.779205 257.311951,233.779205 
	C255.355927,232.767960 253.399918,231.756714 251.655838,230.404984 
	C255.987396,219.889786 260.107025,209.715073 264.453705,198.979538 
	C258.674896,199.401260 253.939499,199.746826 248.925461,200.112747 
	C253.185211,183.191971 257.205078,167.224060 261.224945,151.256134 
	C265.117004,146.198044 270.604584,146.726440 275.837219,147.581375 
	C278.672821,148.044693 281.284943,149.875641 283.975189,151.476669 
z"/>
<path fill="#000000" opacity="1.000000" stroke="none" 
	d="
M261.056458,150.893433 
	C257.205078,167.224060 253.185211,183.191971 248.925461,200.112747 
	C253.939499,199.746826 258.674896,199.401260 264.453705,198.979538 
	C260.107025,209.715073 255.987396,219.889786 251.490570,230.118912 
	C249.440628,229.363892 247.767899,228.554443 245.723083,227.410080 
	C242.590332,224.679031 239.829681,222.282883 237.069031,219.886734 
	C236.601913,218.682297 236.134796,217.477859 235.351715,216.118530 
	C235.035751,215.963638 235.050018,215.908997 235.050018,215.908997 
	C234.889587,215.339539 234.729172,214.770081 234.003265,214.052032 
	C232.974899,213.562653 232.512009,213.221848 232.049133,212.881042 
	C232.049133,212.881042 231.982635,212.427231 231.908112,212.210358 
	C231.986023,210.949982 232.643631,209.583252 232.214188,208.912064 
	C226.814590,200.473038 227.660141,191.973450 229.369598,182.379608 
	C230.875443,173.928421 234.728073,167.829178 239.899078,161.444305 
	C243.483963,158.477875 246.926193,155.816513 250.689178,152.998077 
	C254.302612,152.070923 257.595306,151.300812 261.056458,150.893433 
z"/>
<path fill="#0189CD" opacity="1.000000" stroke="none" 
	d="
M237.138000,220.221970 
	C239.829681,222.282883 242.590332,224.679031 245.370270,227.441544 
	C242.662018,225.391022 239.934479,222.974121 237.138000,220.221970 
z"/>
<path fill="#0189CD" opacity="1.000000" stroke="none" 
	d="
M262.003662,233.232300 
	C262.615387,233.601364 263.227142,233.970428 263.942413,234.606308 
	C263.171173,235.019821 262.296417,235.166534 261.202759,235.149658 
	C260.983856,234.986069 261.013550,234.937195 261.197998,234.765442 
	C261.589508,234.139908 261.796570,233.686096 262.003662,233.232300 
z"/>
<path fill="#0189CD" opacity="1.000000" stroke="none" 
	d="
M232.104462,213.120178 
	C232.512009,213.221848 232.974899,213.562653 233.700531,214.029724 
	C233.362122,213.890411 232.760956,213.624863 232.104462,213.120178 
z"/>
<path fill="#0189CD" opacity="1.000000" stroke="none" 
	d="
M259.343689,234.163635 
	C259.157410,233.979050 259.550079,233.966248 259.934204,234.114990 
	C260.564545,234.473282 260.796265,234.697784 261.013550,234.937195 
	C261.013550,234.937195 260.983856,234.986069 260.966156,235.009064 
	C260.475616,234.804108 260.002777,234.576157 259.343689,234.163635 
z"/>
<path fill="#0189CD" opacity="1.000000" stroke="none" 
	d="
M257.365601,233.771301 
	C257.311951,233.779205 257.384949,233.521317 257.449585,233.556122 
	C257.514221,233.590927 257.419281,233.763397 257.365601,233.771301 
z"/>
<path fill="#0189CD" opacity="1.000000" stroke="none" 
	d="
M235.062958,215.955963 
	C235.090149,215.948303 234.976562,215.982819 235.013290,215.945908 
	C235.050018,215.908997 235.035751,215.963638 235.062958,215.955963 
z"/>
<path fill="#0182C6" opacity="1.000000" stroke="none" 
	d="
M261.197998,234.765442 
	C260.796265,234.697784 260.564545,234.473282 260.130615,234.110352 
	C260.432159,233.693390 260.921417,233.429794 261.707153,233.199249 
	C261.796570,233.686096 261.589508,234.139908 261.197998,234.765442 
z"/>
</svg>